UNKNOWN
version=1
nRows=70
nColumns=10
inDegrees=no
endheader
time	hip_rotation_r	glut_max1_r	glut_max2_r	glut_max3_r	glut_med1_r	glut_med2_r	glut_med3_r	iliacus_r	psoas_r
      0.00000000	    -30.00000000	     -0.01057660	      0.00059522	     -0.01390711	     -0.02897786	     -0.01093661	      0.01677738	      0.00060477	     -0.00714681
      1.00000000	    -29.39393939	     -0.01116916	     -0.00019600	     -0.01432321	     -0.02908508	     -0.01105235	      0.01670007	      0.00062723	     -0.00711595
      2.00000000	    -28.78787879	     -0.01175774	     -0.00098711	     -0.01473467	     -0.02918801	     -0.01116656	      0.01662058	      0.00064962	     -0.00708445
      3.00000000	    -28.18181818	     -0.01234215	     -0.00177760	     -0.01514140	     -0.02928667	     -0.01127922	      0.01653890	      0.00067195	     -0.00705231
      4.00000000	    -27.57575758	     -0.01292222	     -0.00256701	     -0.01554332	     -0.02938110	     -0.01139032	      0.01645504	      0.00069421	     -0.00701954
      5.00000000	    -26.96969697	     -0.01349777	     -0.00335484	     -0.01594035	     -0.02947132	     -0.01149985	      0.01636900	      0.00071641	     -0.00698614
      6.00000000	    -26.36363636	     -0.01406863	     -0.00414063	     -0.01633240	     -0.02955738	     -0.01160780	      0.01628078	      0.00073854	     -0.00695213
      7.00000000	    -25.75757576	     -0.01463463	     -0.00492390	     -0.01671941	     -0.02963930	     -0.01171417	      0.01619038	      0.00076059	     -0.00691750
      8.00000000	    -25.15151515	     -0.01519563	     -0.00570418	     -0.01710131	     -0.02971711	     -0.01181893	      0.01609780	      0.00078258	     -0.00688227
      9.00000000	    -24.54545455	     -0.01575145	     -0.00648102	     -0.01747804	     -0.02979085	     -0.01192209	      0.01600306	      0.00080448	     -0.00684643
     10.00000000	    -23.93939394	     -0.01630197	     -0.00725396	     -0.01784953	     -0.02986054	     -0.01202363	      0.01590615	      0.00082631	     -0.00681000
     11.00000000	    -23.33333333	     -0.01684702	     -0.00802257	     -0.01821573	     -0.02992623	     -0.01212353	      0.01580707	      0.00084806	     -0.00677297
     12.00000000	    -22.72727273	     -0.01738649	     -0.00878641	     -0.01857660	     -0.02998794	     -0.01222181	      0.01570584	      0.00086972	     -0.00673536
     13.00000000	    -22.12121212	     -0.01792023	     -0.00954507	     -0.01893208	     -0.03004571	     -0.01231844	      0.01560246	      0.00089130	     -0.00669717
     14.00000000	    -21.51515152	     -0.01844812	     -0.01029814	     -0.01928214	     -0.03009956	     -0.01241342	      0.01549692	      0.00091279	     -0.00665841
     15.00000000	    -20.90909091	     -0.01897005	     -0.01104523	     -0.01962673	     -0.03014954	     -0.01250673	      0.01538925	      0.00093419	     -0.00661908
     16.00000000	    -20.30303030	     -0.01948590	     -0.01178595	     -0.01996582	     -0.03019568	     -0.01259838	      0.01527944	      0.00095550	     -0.00657918
     17.00000000	    -19.69696970	     -0.01999556	     -0.01251994	     -0.02029939	     -0.03023800	     -0.01268836	      0.01516750	      0.00097672	     -0.00653873
     18.00000000	    -19.09090909	     -0.02049894	     -0.01324685	     -0.02062741	     -0.03027654	     -0.01277665	      0.01505344	      0.00099784	     -0.00649773
     19.00000000	    -18.48484848	     -0.02099593	     -0.01396635	     -0.02094984	     -0.03031134	     -0.01286326	      0.01493727	      0.00101887	     -0.00645618
     20.00000000	    -17.87878788	     -0.02148645	     -0.01467811	     -0.02126669	     -0.03034243	     -0.01294817	      0.01481898	      0.00103979	     -0.00641409
     21.00000000	    -17.27272727	     -0.02197042	     -0.01538182	     -0.02157791	     -0.03036984	     -0.01303138	      0.01469861	      0.00106062	     -0.00637147
     22.00000000	    -16.66666667	     -0.02244775	     -0.01607722	     -0.02188352	     -0.03039361	     -0.01311289	      0.01457614	      0.00108134	     -0.00632832
     23.00000000	    -16.06060606	     -0.02291838	     -0.01676401	     -0.02218349	     -0.03041376	     -0.01319268	      0.01445159	      0.00110195	     -0.00628464
     24.00000000	    -15.45454545	     -0.02338223	     -0.01744195	     -0.02247783	     -0.03043033	     -0.01327076	      0.01432497	      0.00112245	     -0.00624045
     25.00000000	    -14.84848485	     -0.02383925	     -0.01811079	     -0.02276652	     -0.03044335	     -0.01334712	      0.01419629	      0.00114285	     -0.00619574
     26.00000000	    -14.24242424	     -0.02428937	     -0.01877033	     -0.02304957	     -0.03045286	     -0.01342176	      0.01406557	      0.00116313	     -0.00615053
     27.00000000	    -13.63636364	     -0.02473255	     -0.01942035	     -0.02332698	     -0.03045889	     -0.01349467	      0.01393280	      0.00118329	     -0.00610481
     28.00000000	    -13.03030303	     -0.02516875	     -0.02006066	     -0.02359875	     -0.03046147	     -0.01356584	      0.01379801	      0.00120334	     -0.00605860
     29.00000000	    -12.42424242	     -0.02559791	     -0.02069110	     -0.02386490	     -0.03046063	     -0.01363528	      0.01366120	      0.00122328	     -0.00601190
     30.00000000	    -11.81818182	     -0.02602000	     -0.02131151	     -0.02412544	     -0.03045641	     -0.01370298	      0.01352239	      0.00124309	     -0.00596472
     31.00000000	    -11.21212121	     -0.02643500	     -0.02192174	     -0.02438037	     -0.03044884	     -0.01376893	      0.01338160	      0.00126277	     -0.00591705
     32.00000000	    -10.60606061	     -0.02684287	     -0.02252168	     -0.02462972	     -0.03043794	     -0.01383314	      0.01323882	      0.00128234	     -0.00586891
     33.00000000	    -10.00000000	     -0.02724359	     -0.02311121	     -0.02487349	     -0.03042376	     -0.01389561	      0.01309409	      0.00130177	     -0.00582031
     34.00000000	     -9.39393939	     -0.02763715	     -0.02369025	     -0.02511172	     -0.03040632	     -0.01395632	      0.01294741	      0.00132108	     -0.00577124
     35.00000000	     -8.78787879	     -0.02802353	     -0.02425870	     -0.02534442	     -0.03038566	     -0.01401529	      0.01279880	      0.00134026	     -0.00572171
     36.00000000	     -8.18181818	     -0.02840272	     -0.02481650	     -0.02557161	     -0.03036180	     -0.01407250	      0.01264827	      0.00135930	     -0.00567173
     37.00000000	     -7.57575758	     -0.02877471	     -0.02536360	     -0.02579333	     -0.03033479	     -0.01412795	      0.01249584	      0.00137821	     -0.00562130
     38.00000000	     -6.96969697	     -0.02913951	     -0.02589996	     -0.02600959	     -0.03030464	     -0.01418165	      0.01234152	      0.00139698	     -0.00557043
     39.00000000	     -6.36363636	     -0.02949711	     -0.02642555	     -0.02622042	     -0.03027139	     -0.01423360	      0.01218534	      0.00141561	     -0.00551913
     40.00000000	     -5.75757576	     -0.02984752	     -0.02694036	     -0.02642587	     -0.03023507	     -0.01428378	      0.01202731	      0.00143411	     -0.00546739
     41.00000000	     -5.15151515	     -0.03019075	     -0.02744437	     -0.02662594	     -0.03019571	     -0.01433221	      0.01186745	      0.00145245	     -0.00541523
     42.00000000	     -4.54545455	     -0.03052681	     -0.02793760	     -0.02682069	     -0.03015334	     -0.01437889	      0.01170577	      0.00147066	     -0.00536265
     43.00000000	     -3.93939394	     -0.03085572	     -0.02842006	     -0.02701014	     -0.03010799	     -0.01442380	      0.01154229	      0.00148872	     -0.00530966
     44.00000000	     -3.33333333	     -0.03117749	     -0.02889177	     -0.02719433	     -0.03005969	     -0.01446696	      0.01137705	      0.00150662	     -0.00525625
     45.00000000	     -2.72727273	     -0.03149214	     -0.02935277	     -0.02737330	     -0.03000848	     -0.01450836	      0.01121004	      0.00152438	     -0.00520244
     46.00000000	     -2.12121212	     -0.03179970	     -0.02980311	     -0.02754707	     -0.02995437	     -0.01454801	      0.01104130	      0.00154199	     -0.00514823
     47.00000000	     -1.51515152	     -0.03210020	     -0.03024283	     -0.02771570	     -0.02989741	     -0.01458590	      0.01087085	      0.00155944	     -0.00509363
     48.00000000	     -0.90909091	     -0.03239365	     -0.03067199	     -0.02787921	     -0.02983761	     -0.01462204	      0.01069870	      0.00157673	     -0.00503864
     49.00000000	     -0.30303030	     -0.03268010	     -0.03109066	     -0.02803765	     -0.02977501	     -0.01465643	      0.01052488	      0.00159387	     -0.00498327
     50.00000000	      0.30303030	     -0.03295958	     -0.03149891	     -0.02819106	     -0.02970963	     -0.01468906	      0.01034941	      0.00161084	     -0.00492752
     51.00000000	      0.90909091	     -0.03323212	     -0.03189681	     -0.02833949	     -0.02964151	     -0.01471995	      0.01017232	      0.00162766	     -0.00487140
     52.00000000	      1.51515152	     -0.03349776	     -0.03228446	     -0.02848296	     -0.02957068	     -0.01474910	      0.00999362	      0.00164431	     -0.00481491
     53.00000000	      2.12121212	     -0.03375654	     -0.03266194	     -0.02862153	     -0.02949715	     -0.01477650	      0.00981334	      0.00166079	     -0.00475806
     54.00000000	      2.72727273	     -0.03400850	     -0.03302934	     -0.02875523	     -0.02942096	     -0.01480216	      0.00963151	      0.00167711	     -0.00470085
     55.00000000	      3.33333333	     -0.03425368	     -0.03338677	     -0.02888411	     -0.02934213	     -0.01482608	      0.00944814	      0.00169326	     -0.00464329
     56.00000000	      3.93939394	     -0.03449213	     -0.03373432	     -0.02900822	     -0.02926070	     -0.01484827	      0.00926327	      0.00170923	     -0.00458538
     57.00000000	      4.54545455	     -0.03472389	     -0.03407209	     -0.02912760	     -0.02917669	     -0.01486873	      0.00907692	      0.00172503	     -0.00452713
     58.00000000	      5.15151515	     -0.03494901	     -0.03440021	     -0.02924228	     -0.02909013	     -0.01488745	      0.00888911	      0.00174066	     -0.00446855
     59.00000000	      5.75757576	     -0.03516754	     -0.03471877	     -0.02935232	     -0.02900104	     -0.01490446	      0.00869988	      0.00175611	     -0.00440963
     60.00000000	      6.36363636	     -0.03537952	     -0.03502789	     -0.02945777	     -0.02890945	     -0.01491974	      0.00850924	      0.00177139	     -0.00435039
     61.00000000	      6.96969697	     -0.03558501	     -0.03532769	     -0.02955865	     -0.02881538	     -0.01493331	      0.00831723	      0.00178648	     -0.00429083
     62.00000000	      7.57575758	     -0.03578405	     -0.03561829	     -0.02965503	     -0.02871887	     -0.01494516	      0.00812388	      0.00180139	     -0.00423095
     63.00000000	      8.18181818	     -0.03597671	     -0.03589979	     -0.02974694	     -0.02861994	     -0.01495530	      0.00792921	      0.00181612	     -0.00417076
     64.00000000	      8.78787879	     -0.03616303	     -0.03617233	     -0.02983443	     -0.02851861	     -0.01496374	      0.00773324	      0.00183066	     -0.00411027
     65.00000000	      9.39393939	     -0.03634306	     -0.03643603	     -0.02991755	     -0.02841491	     -0.01497049	      0.00753602	      0.00184501	     -0.00404947
     66.00000000	     10.00000000	     -0.03651687	     -0.03669100	     -0.02999634	     -0.02830886	     -0.01497553	      0.00733757	      0.00185918	     -0.00398839
     67.00000000	     10.60606061	     -0.03668450	     -0.03693736	     -0.03007084	     -0.02820049	     -0.01497889	      0.00713792	      0.00187315	     -0.00392701
     68.00000000	     11.21212121	     -0.03684602	     -0.03717525	     -0.03014109	     -0.02808983	     -0.01498056	      0.00693709	      0.00188694	     -0.00386534
     69.00000000	     11.81818182	     -0.03700147	     -0.03740478	     -0.03020716	     -0.02797690	     -0.01498056	      0.00673513	      0.00190053	     -0.00380340
